<svg width="48" height="48" viewBox="0 0 48 48" fill="none" xmlns="http://www.w3.org/2000/svg">
<path d="M22 16H26V18H22V16ZM22 8H26V10H22V8ZM22 20H26V22H22V20Z" fill="black"/>
<path d="M42 24V18C35.9027 17.9981 29.9951 20.1196 25.292 24H22.708C18.0049 20.1196 12.0973 17.9981 6 18V24C5.46957 24 4.96086 24.2107 4.58579 24.5858C4.21071 24.9609 4 25.4696 4 26V30C4 30.5304 4.21071 31.0391 4.58579 31.4142C4.96086 31.7893 5.46957 32 6 32V40C12.6842 39.9933 19.1203 42.5319 24 47.1C28.8852 42.5406 35.3177 40.0033 42 40V32C42.5304 32 43.0391 31.7893 43.4142 31.4142C43.7893 31.0391 44 30.5304 44 30V26C44 25.4696 43.7893 24.9609 43.4142 24.5858C43.0391 24.2107 42.5304 24 42 24Z" fill="black"/>
<path d="M18 10C19.1046 10 20 9.10457 20 8C20 6.89543 19.1046 6 18 6C16.8954 6 16 6.89543 16 8C16 9.10457 16.8954 10 18 10Z" fill="black"/>
<path d="M30 10C31.1046 10 32 9.10457 32 8C32 6.89543 31.1046 6 30 6C28.8954 6 28 6.89543 28 8C28 9.10457 28.8954 10 30 10Z" fill="black"/>
<path d="M32 16H16C14.4092 15.9984 12.884 15.3658 11.7591 14.2409C10.6342 13.116 10.0016 11.5908 10 10V6C10.0016 4.40919 10.6342 2.88399 11.7591 1.75911C12.884 0.63424 14.4092 0.00158843 16 0L32 0C33.5908 0.00158843 35.116 0.63424 36.2409 1.75911C37.3658 2.88399 37.9984 4.40919 38 6V10C37.9984 11.5908 37.3658 13.116 36.2409 14.2409C35.116 15.3658 33.5908 15.9984 32 16ZM16 4C15.4696 4 14.9609 4.21071 14.5858 4.58579C14.2107 4.96086 14 5.46957 14 6V10C14 10.5304 14.2107 11.0391 14.5858 11.4142C14.9609 11.7893 15.4696 12 16 12H32C32.5304 12 33.0391 11.7893 33.4142 11.4142C33.7893 11.0391 34 10.5304 34 10V6C34 5.46957 33.7893 4.96086 33.4142 4.58579C33.0391 4.21071 32.5304 4 32 4H16Z" fill="black"/>
</svg>
