<svg width="123" height="123" viewBox="0 0 123 123" fill="none" xmlns="http://www.w3.org/2000/svg">
  <rect x="15" y="15" width="93" height="93" rx="18" fill="white" stroke="black" stroke-width="6" />
<path d="M61.5 8C62.7333 8 63.916 8.48991 64.788 9.36195C65.6601 10.234 66.15 11.4167 66.15 12.65V17.3H73.125C82.3744 17.3 91.245 20.9743 97.7853 27.5147C104.326 34.055 108 42.9256 108 52.175C108 61.4244 104.326 70.295 97.7853 76.8353C91.245 83.3757 82.3744 87.05 73.125 87.05H49.875C40.6256 87.05 31.755 83.3757 25.2147 76.8353C18.6743 70.295 15 61.4244 15 52.175C15 42.9256 18.6743 34.055 25.2147 27.5147C31.755 20.9743 40.6256 17.3 49.875 17.3H56.85V12.65C56.85 11.4167 57.3399 10.234 58.212 9.36195C59.084 8.48991 60.2667 8 61.5 8ZM73.125 26.6H49.875C43.0921 26.6 36.587 29.2945 31.7907 34.0907C26.9945 38.887 24.3 45.3921 24.3 52.175C24.3 58.9579 26.9945 65.463 31.7907 70.2593C36.587 75.0555 43.0921 77.75 49.875 77.75H73.125C79.9079 77.75 86.413 75.0555 91.2093 70.2593C96.0055 65.463 98.7 58.9579 98.7 52.175C98.7 45.3921 96.0055 38.887 91.2093 34.0907C86.413 29.2945 79.9079 26.6 73.125 26.6ZM77.775 40.55C78.9139 40.5501 80.0132 40.9683 80.8643 41.7251C81.7154 42.482 82.2592 43.5248 82.3924 44.6559L82.425 45.2V47.525H84.75C85.9352 47.5263 87.0751 47.9801 87.937 48.7937C88.7988 49.6073 89.3174 50.7193 89.3868 51.9025C89.4563 53.0856 89.0714 54.2507 88.3107 55.1595C87.55 56.0684 86.4709 56.6525 85.2941 56.7924L84.75 56.825H82.425V59.15C82.4237 60.3352 81.9699 61.4751 81.1563 62.337C80.3427 63.1988 79.2307 63.7174 78.0475 63.7868C76.8644 63.8563 75.6993 63.4714 74.7905 62.7107C73.8816 61.95 73.2975 60.8709 73.1576 59.694L73.125 59.15V56.825H70.8C69.6148 56.8237 68.4748 56.3699 67.613 55.5563C66.7512 54.7426 66.2326 53.6307 66.1632 52.4475C66.0937 51.2644 66.4786 50.0993 67.2393 49.1905C68 48.2816 69.0791 47.6975 70.256 47.5575L70.8 47.525H73.125V45.2C73.125 43.9667 73.6149 42.784 74.487 41.912C75.359 41.0399 76.5417 40.55 77.775 40.55ZM45.225 40.55C48.3081 40.55 51.265 41.7748 53.4451 43.9549C55.6252 46.135 56.85 49.0919 56.85 52.175C56.85 55.2581 55.6252 58.215 53.4451 60.3951C51.265 62.5752 48.3081 63.8 45.225 63.8C42.1419 63.8 39.185 62.5752 37.0049 60.3951C34.8248 58.215 33.6 55.2581 33.6 52.175C33.6 49.0919 34.8248 46.135 37.0049 43.9549C39.185 41.7748 42.1419 40.55 45.225 40.55ZM45.225 49.85C44.6084 49.85 44.017 50.0949 43.581 50.531C43.145 50.967 42.9 51.5584 42.9 52.175C42.9 52.7916 43.145 53.383 43.581 53.819C44.017 54.255 44.6084 54.5 45.225 54.5C45.8416 54.5 46.433 54.255 46.869 53.819C47.305 53.383 47.55 52.7916 47.55 52.175C47.55 51.5584 47.305 50.967 46.869 50.531C46.433 50.0949 45.8416 49.85 45.225 49.85Z" fill="black"/>
</svg>
