<svg width="55" height="55" viewBox="0 0 55 55" fill="none" xmlns="http://www.w3.org/2000/svg">
<path d="M27.5 4.58337C28.7155 4.58337 29.8813 5.06626 30.7409 5.9258C31.6004 6.78534 32.0833 7.95113 32.0833 9.16671C32.0833 10.8625 31.1666 12.3521 29.7916 13.1313V16.0417H32.0833C36.3378 16.0417 40.4181 17.7318 43.4265 20.7402C46.4349 23.7486 48.125 27.8289 48.125 32.0834H50.4166C51.0244 32.0834 51.6073 32.3248 52.0371 32.7546C52.4669 33.1844 52.7083 33.7673 52.7083 34.375V41.25C52.7083 41.8578 52.4669 42.4407 52.0371 42.8705C51.6073 43.3003 51.0244 43.5417 50.4166 43.5417H48.125V45.8334C48.125 47.049 47.6421 48.2147 46.7825 49.0743C45.923 49.9338 44.7572 50.4167 43.5416 50.4167H11.4583C10.2427 50.4167 9.07693 49.9338 8.21739 49.0743C7.35784 48.2147 6.87496 47.049 6.87496 45.8334V43.5417H4.58329C3.9755 43.5417 3.39261 43.3003 2.96284 42.8705C2.53307 42.4407 2.29163 41.8578 2.29163 41.25V34.375C2.29163 33.7673 2.53307 33.1844 2.96284 32.7546C3.39261 32.3248 3.9755 32.0834 4.58329 32.0834H6.87496C6.87496 27.8289 8.56506 23.7486 11.5735 20.7402C14.5819 17.7318 18.6621 16.0417 22.9166 16.0417H25.2083V13.1313C23.8333 12.3521 22.9166 10.8625 22.9166 9.16671C22.9166 7.95113 23.3995 6.78534 24.2591 5.9258C25.1186 5.06626 26.2844 4.58337 27.5 4.58337ZM17.1875 29.7917C15.668 29.7917 14.2108 30.3953 13.1363 31.4697C12.0619 32.5442 11.4583 34.0014 11.4583 35.5209C11.4583 37.0403 12.0619 38.4976 13.1363 39.572C14.2108 40.6464 15.668 41.25 17.1875 41.25C18.7069 41.25 20.1642 40.6464 21.2386 39.572C22.313 38.4976 22.9166 37.0403 22.9166 35.5209C22.9166 34.0014 22.313 32.5442 21.2386 31.4697C20.1642 30.3953 18.7069 29.7917 17.1875 29.7917ZM37.8125 29.7917C36.293 29.7917 34.8358 30.3953 33.7613 31.4697C32.6869 32.5442 32.0833 34.0014 32.0833 35.5209C32.0833 37.0403 32.6869 38.4976 33.7613 39.572C34.8358 40.6464 36.293 41.25 37.8125 41.25C39.3319 41.25 40.7892 40.6464 41.8636 39.572C42.938 38.4976 43.5416 37.0403 43.5416 35.5209C43.5416 34.0014 42.938 32.5442 41.8636 31.4697C40.7892 30.3953 39.3319 29.7917 37.8125 29.7917Z" fill="black"/>
</svg>
