<svg width="48" height="48" viewBox="0 0 48 48" fill="none" xmlns="http://www.w3.org/2000/svg">
<g clip-path="url(#clip0_2_99)">
<path d="M20 45.46C19.2255 45.1415 18.5394 44.6406 18 44H6C5.46957 44 4.96086 43.7893 4.58579 43.4142C4.21071 43.0391 4 42.5304 4 42V10.5C4 10.3674 4.05268 10.2402 4.14645 10.1464C4.24021 10.0527 4.36739 10 4.5 10H43.5C43.6326 10 43.7598 10.0527 43.8536 10.1464C43.9473 10.2402 44 10.3674 44 10.5V20.84L48 22.54V6C48 4.4087 47.3679 2.88258 46.2426 1.75736C45.1174 0.632141 43.5913 0 42 0L6 0C4.4087 0 2.88258 0.632141 1.75736 1.75736C0.632141 2.88258 0 4.4087 0 6L0 42C0 43.5913 0.632141 45.1174 1.75736 46.2426C2.88258 47.3679 4.4087 48 6 48H26L20 45.46ZM21 3C21.5304 3 22.0391 3.21071 22.4142 3.58579C22.7893 3.96086 23 4.46957 23 5C23 5.53043 22.7893 6.03914 22.4142 6.41421C22.0391 6.78929 21.5304 7 21 7C20.4696 7 19.9609 6.78929 19.5858 6.41421C19.2107 6.03914 19 5.53043 19 5C19 4.46957 19.2107 3.96086 19.5858 3.58579C19.9609 3.21071 20.4696 3 21 3ZM14 3C14.5304 3 15.0391 3.21071 15.4142 3.58579C15.7893 3.96086 16 4.46957 16 5C16 5.53043 15.7893 6.03914 15.4142 6.41421C15.0391 6.78929 14.5304 7 14 7C13.4696 7 12.9609 6.78929 12.5858 6.41421C12.2107 6.03914 12 5.53043 12 5C12 4.46957 12.2107 3.96086 12.5858 3.58579C12.9609 3.21071 13.4696 3 14 3ZM7 3C7.53043 3 8.03914 3.21071 8.41421 3.58579C8.78929 3.96086 9 4.46957 9 5C9 5.53043 8.78929 6.03914 8.41421 6.41421C8.03914 6.78929 7.53043 7 7 7C6.46957 7 5.96086 6.78929 5.58579 6.41421C5.21071 6.03914 5 5.53043 5 5C5 4.46957 5.21071 3.96086 5.58579 3.58579C5.96086 3.21071 6.46957 3 7 3Z" fill="black"/>
<path d="M48 27.14C47.9997 26.7474 47.8838 26.3636 47.6669 26.0364C47.4499 25.7092 47.1415 25.4531 46.78 25.3L34.78 20.16C34.5332 20.0554 34.268 20.0016 34 20.0016C33.732 20.0016 33.4668 20.0554 33.22 20.16L21.22 25.3C20.8585 25.4531 20.5501 25.7092 20.3331 26.0364C20.1162 26.3636 20.0003 26.7474 20 27.14V40.86C20.0003 41.2525 20.1162 41.6363 20.3331 41.9635C20.5501 42.2907 20.8585 42.5469 21.22 42.7L33.22 47.84C33.4668 47.9445 33.732 47.9983 34 47.9983C34.268 47.9983 34.5332 47.9445 34.78 47.84L46.78 42.7C47.1415 42.5469 47.4499 42.2907 47.6669 41.9635C47.8838 41.6363 47.9997 41.2525 48 40.86V27.14ZM34 24.18L40.92 27.14L34 30.12L27.08 27.14L34 24.18ZM24 30.18L32 33.6V42.96L24 39.54V30.18ZM36 42.96V33.6L44 30.18V39.54L36 42.96Z" fill="black"/>
</g>
<defs>
<clipPath id="clip0_2_99">
<rect width="48" height="48" fill="white"/>
</clipPath>
</defs>
</svg>
