<svg width="49" height="49" viewBox="0 0 49 49" fill="none" xmlns="http://www.w3.org/2000/svg">
<path fill-rule="evenodd" clip-rule="evenodd" d="M7.4375 5.6875C7.4375 4.963 8.0255 4.375 8.75 4.375H40.25C40.9745 4.375 41.5625 4.963 41.5625 5.6875V36.75H7.4375V5.6875ZM8.75 0C5.6105 0 3.0625 2.548 3.0625 5.6875V43.3125C3.0625 46.4555 5.6105 49 8.75 49H40.25C43.393 49 45.9375 46.4555 45.9375 43.3125V5.6875C45.9375 2.548 43.393 0 40.25 0H8.75ZM18.9175 13.3105C17.815 13.9055 16.6005 15.1305 15.7045 16.3905C15.5101 16.6828 15.259 16.9332 14.9661 17.1267C14.6732 17.3203 14.3444 17.4532 13.9992 17.5174C13.6541 17.5817 13.2995 17.576 12.9566 17.5008C12.6137 17.4256 12.2893 17.2824 12.0027 17.0796C11.7161 16.8769 11.4731 16.6186 11.288 16.3203C11.103 16.0219 10.9797 15.6895 10.9254 15.3426C10.8711 14.9957 10.8869 14.6415 10.972 14.3009C11.057 13.9603 11.2095 13.6401 11.4205 13.3595C12.5755 11.7285 14.35 9.814 16.4185 8.694C17.4685 8.1235 18.753 7.6755 20.1565 7.7245C21.6405 7.777 23.0265 8.3755 24.1675 9.52C26.173 11.522 25.7005 14.1435 25.13 15.7955C24.5595 17.4475 23.534 19.2185 22.68 20.6885L22.5645 20.888C21.623 22.505 20.9265 23.7475 20.6115 24.71C20.7562 24.64 20.9335 24.535 21.1435 24.395C22.225 23.6705 23.4395 22.442 24.906 20.9265L25.081 20.7445C26.39 19.397 27.9195 17.815 29.4315 16.772C30.9365 15.736 33.4985 14.511 36.0185 16.191C36.932 16.8 37.6635 17.6225 38.0555 18.683C38.4335 19.7155 38.388 20.72 38.22 21.5425C37.9505 22.8585 37.2225 24.2165 36.7115 25.1685L36.5365 25.4975C35.8995 26.705 35.6125 27.391 35.5705 27.86C35.5651 27.91 35.5651 27.9605 35.5705 28.0105L35.5845 28.0455C35.588 28.0525 35.6615 28.203 36.0185 28.441C36.3094 28.6304 36.5599 28.8756 36.7555 29.1624C36.951 29.4493 37.0877 29.772 37.1577 30.1121C37.2276 30.4521 37.2294 30.8026 37.163 31.1433C37.0966 31.4841 36.9632 31.8083 36.7706 32.0971C36.5781 32.3859 36.3301 32.6337 36.0412 32.8261C35.7522 33.0185 35.4279 33.1516 35.0872 33.2178C34.7464 33.284 34.3959 33.282 34.0559 33.2118C33.7159 33.1416 33.3932 33.0047 33.1065 32.809C32.1622 32.2111 31.3939 31.3728 30.8805 30.38C30.434 29.4607 30.2476 28.4367 30.3415 27.419C30.4815 25.7145 31.339 24.0975 31.8955 23.044L31.9795 22.8865C32.5255 21.8505 32.8615 21.217 33.0155 20.7305C32.8077 20.8363 32.6077 20.9567 32.417 21.091C31.3565 21.826 30.156 23.0545 28.679 24.5805L28.6265 24.633C27.2825 26.019 25.683 27.671 24.073 28.7525C22.491 29.8165 19.9465 30.94 17.416 29.3475C16.8772 29.0191 16.4125 28.5823 16.0516 28.0647C15.6907 27.5471 15.4414 26.9601 15.3195 26.341C15.099 25.221 15.2985 24.136 15.5645 23.275C16.0615 21.63 17.108 19.8275 17.969 18.347L18.025 18.2525C18.9875 16.5865 19.775 15.225 20.167 14.0875C20.349 13.5625 20.377 13.2825 20.377 13.1565C20.1845 12.985 20.062 12.9745 19.9745 12.971C19.7995 12.964 19.4495 13.02 18.9175 13.3105ZM20.363 13.0655L20.377 13.1215C20.363 13.0912 20.3583 13.0702 20.363 13.0655ZM33.348 20.629C33.341 20.636 33.3153 20.6372 33.271 20.6325C33.3247 20.6208 33.3527 20.6197 33.348 20.629Z" fill="black"/>
</svg>
